<svg xmlns="http://www.w3.org/2000/svg" style="display:none"><symbol id="i-arrow-right" viewBox="0 0 256 256"><path d="M221.66,133.66l-72,72a8,8,0,0,1-11.32-11.32L196.69,136H40a8,8,0,0,1,0-16H196.69L138.34,61.66a8,8,0,0,1,11.32-11.32l72,72A8,8,0,0,1,221.66,133.66Z"/></symbol><symbol id="i-arrow-up-right" viewBox="0 0 256 256"><path d="M200,64V168a8,8,0,0,1-16,0V83.31L69.66,197.66a8,8,0,0,1-11.32-11.32L172.69,72H88a8,8,0,0,1,0-16H192A8,8,0,0,1,200,64Z"/></symbol><symbol id="i-arrow-down-right" viewBox="0 0 256 256"><path d="M200,88V192a8,8,0,0,1-8,8H88a8,8,0,0,1,0-16h84.69L58.34,69.66A8,8,0,0,1,69.66,58.34L184,172.69V88a8,8,0,0,1,16,0Z"/></symbol><symbol id="i-bell" viewBox="0 0 256 256"><path d="M221.8,175.94C216.25,166.38,208,139.33,208,104a80,80,0,1,0-160,0c0,35.34-8.26,62.38-13.81,71.94A16,16,0,0,0,48,200H88.81a40,40,0,0,0,78.38,0H208a16,16,0,0,0,13.8-24.06ZM128,216a24,24,0,0,1-22.62-16h45.24A24,24,0,0,1,128,216ZM48,184c7.7-13.24,16-43.92,16-80a64,64,0,1,1,128,0c0,36.05,8.28,66.73,16,80Z"/></symbol><symbol id="i-bell-ringing" viewBox="0 0 256 256"><path d="M224,71.1a8,8,0,0,1-10.78-3.42,94.13,94.13,0,0,0-33.46-36.91,8,8,0,1,1,8.54-13.54,111.46,111.46,0,0,1,39.12,43.09A8,8,0,0,1,224,71.1ZM35.71,72a8,8,0,0,0,7.1-4.32A94.13,94.13,0,0,1,76.27,30.77a8,8,0,1,0-8.54-13.54A111.46,111.46,0,0,0,28.61,60.32,8,8,0,0,0,35.71,72Zm186.1,103.94A16,16,0,0,1,208,200H167.2a40,40,0,0,1-78.4,0H48a16,16,0,0,1-13.79-24.06C43.22,160.39,48,138.28,48,112a80,80,0,0,1,160,0C208,138.27,212.78,160.38,221.81,175.94ZM150.62,200H105.38a24,24,0,0,0,45.24,0ZM208,184c-10.64-18.27-16-42.49-16-72a64,64,0,0,0-128,0c0,29.52-5.38,53.74-16,72Z"/></symbol><symbol id="i-chart-line-up" viewBox="0 0 256 256"><path d="M232,208a8,8,0,0,1-8,8H32a8,8,0,0,1-8-8V48a8,8,0,0,1,16,0V156.69l50.34-50.35a8,8,0,0,1,11.32,0L128,132.69,180.69,80H160a8,8,0,0,1,0-16h40a8,8,0,0,1,8,8v40a8,8,0,0,1-16,0V91.31l-58.34,58.35a8,8,0,0,1-11.32,0L96,123.31l-56,56V200H224A8,8,0,0,1,232,208Z"/></symbol><symbol id="i-magnifying-glass" viewBox="0 0 256 256"><path d="M229.66,218.34l-50.07-50.06a88.11,88.11,0,1,0-11.31,11.31l50.06,50.07a8,8,0,0,0,11.32-11.32ZM40,112a72,72,0,1,1,72,72A72.08,72.08,0,0,1,40,112Z"/></symbol><symbol id="i-lightning" viewBox="0 0 256 256"><path d="M215.79,118.17a8,8,0,0,0-5-5.66L153.18,90.9l14.66-73.33a8,8,0,0,0-13.69-7l-112,120a8,8,0,0,0,3,13l57.63,21.61L88.16,238.43a8,8,0,0,0,13.69,7l112-120A8,8,0,0,0,215.79,118.17ZM109.37,214l10.47-52.38a8,8,0,0,0-5-9.06L62,132.71l84.62-90.66L136.16,94.43a8,8,0,0,0,5,9.06l52.8,19.8Z"/></symbol><symbol id="i-cpu" viewBox="0 0 256 256"><path d="M152,96H104a8,8,0,0,0-8,8v48a8,8,0,0,0,8,8h48a8,8,0,0,0,8-8V104A8,8,0,0,0,152,96Zm-8,48H112V112h32Zm88,0H216V112h16a8,8,0,0,0,0-16H216V56a16,16,0,0,0-16-16H160V24a8,8,0,0,0-16,0V40H112V24a8,8,0,0,0-16,0V40H56A16,16,0,0,0,40,56V96H24a8,8,0,0,0,0,16H40v32H24a8,8,0,0,0,0,16H40v40a16,16,0,0,0,16,16H96v16a8,8,0,0,0,16,0V216h32v16a8,8,0,0,0,16,0V216h40a16,16,0,0,0,16-16V160h16a8,8,0,0,0,0-16Zm-32,56H56V56H200v95.87s0,.09,0,.13,0,.09,0,.13V200Z"/></symbol><symbol id="i-plugs-connected" viewBox="0 0 256 256"><path d="M237.66,18.34a8,8,0,0,0-11.32,0l-52.4,52.41-5.37-5.38a32.05,32.05,0,0,0-45.26,0L100,88.69l-6.34-6.35A8,8,0,0,0,82.34,93.66L88.69,100,65.37,123.31a32,32,0,0,0,0,45.26l5.38,5.37-52.41,52.4a8,8,0,0,0,11.32,11.32l52.4-52.41,5.37,5.38a32,32,0,0,0,45.26,0L156,167.31l6.34,6.35a8,8,0,0,0,11.32-11.32L167.31,156l23.32-23.31a32,32,0,0,0,0-45.26l-5.38-5.37,52.41-52.4A8,8,0,0,0,237.66,18.34Zm-116.29,161a16,16,0,0,1-22.62,0L76.69,157.25a16,16,0,0,1,0-22.62L100,111.31,144.69,156Zm57.94-57.94L156,144.69,111.31,100l23.32-23.31a16,16,0,0,1,22.62,0l22.06,22A16,16,0,0,1,179.31,121.37ZM88.57,35A8,8,0,0,1,103.43,29l8,20A8,8,0,0,1,96.57,55ZM24.57,93A8,8,0,0,1,35,88.57l20,8A8,8,0,0,1,49,111.43l-20-8A8,8,0,0,1,24.57,93ZM231.43,163a8,8,0,0,1-10.4,4.46l-20-8A8,8,0,1,1,207,144.57l20,8A8,8,0,0,1,231.43,163Zm-64,58.06A8,8,0,0,1,152.57,227l-8-20A8,8,0,0,1,159.43,201Z"/></symbol><symbol id="i-robot" viewBox="0 0 256 256"><path d="M200,48H136V16a8,8,0,0,0-16,0V48H56A32,32,0,0,0,24,80V192a32,32,0,0,0,32,32H200a32,32,0,0,0,32-32V80A32,32,0,0,0,200,48Zm16,144a16,16,0,0,1-16,16H56a16,16,0,0,1-16-16V80A16,16,0,0,1,56,64H200a16,16,0,0,1,16,16Zm-52-56H92a28,28,0,0,0,0,56h72a28,28,0,0,0,0-56Zm-24,16v24H116V152ZM80,164a12,12,0,0,1,12-12h8v24H92A12,12,0,0,1,80,164Zm84,12h-8V152h8a12,12,0,0,1,0,24ZM72,108a12,12,0,1,1,12,12A12,12,0,0,1,72,108Zm88,0a12,12,0,1,1,12,12A12,12,0,0,1,160,108Z"/></symbol><symbol id="i-gear" viewBox="0 0 256 256"><path d="M128,80a48,48,0,1,0,48,48A48.05,48.05,0,0,0,128,80Zm0,80a32,32,0,1,1,32-32A32,32,0,0,1,128,160Zm88-29.84q.06-2.16,0-4.32l14.92-18.64a8,8,0,0,0,1.48-7.06,107.21,107.21,0,0,0-10.88-26.25,8,8,0,0,0-6-3.93l-23.72-2.64q-1.48-1.56-3-3L186,40.54a8,8,0,0,0-3.94-6,107.71,107.71,0,0,0-26.25-10.87,8,8,0,0,0-7.06,1.49L130.16,40Q128,40,125.84,40L107.2,25.11a8,8,0,0,0-7.06-1.48A107.6,107.6,0,0,0,73.89,34.51a8,8,0,0,0-3.93,6L67.32,64.27q-1.56,1.49-3,3L40.54,70a8,8,0,0,0-6,3.94,107.71,107.71,0,0,0-10.87,26.25,8,8,0,0,0,1.49,7.06L40,125.84Q40,128,40,130.16L25.11,148.8a8,8,0,0,0-1.48,7.06,107.21,107.21,0,0,0,10.88,26.25,8,8,0,0,0,6,3.93l23.72,2.64q1.49,1.56,3,3L70,215.46a8,8,0,0,0,3.94,6,107.71,107.71,0,0,0,26.25,10.87,8,8,0,0,0,7.06-1.49L125.84,216q2.16.06,4.32,0l18.64,14.92a8,8,0,0,0,7.06,1.48,107.21,107.21,0,0,0,26.25-10.88,8,8,0,0,0,3.93-6l2.64-23.72q1.56-1.48,3-3L215.46,186a8,8,0,0,0,6-3.94,107.71,107.71,0,0,0,10.87-26.25,8,8,0,0,0-1.49-7.06Zm-16.1-6.5a73.93,73.93,0,0,1,0,8.68,8,8,0,0,0,1.74,5.48l14.19,17.73a91.57,91.57,0,0,1-6.23,15L187,173.11a8,8,0,0,0-5.1,2.64,74.11,74.11,0,0,1-6.14,6.14,8,8,0,0,0-2.64,5.1l-2.51,22.58a91.32,91.32,0,0,1-15,6.23l-17.74-14.19a8,8,0,0,0-5-1.75h-.48a73.93,73.93,0,0,1-8.68,0,8,8,0,0,0-5.48,1.74L100.45,215.8a91.57,91.57,0,0,1-15-6.23L82.89,187a8,8,0,0,0-2.64-5.1,74.11,74.11,0,0,1-6.14-6.14,8,8,0,0,0-5.1-2.64L46.43,170.6a91.32,91.32,0,0,1-6.23-15l14.19-17.74a8,8,0,0,0,1.74-5.48,73.93,73.93,0,0,1,0-8.68,8,8,0,0,0-1.74-5.48L40.2,100.45a91.57,91.57,0,0,1,6.23-15L69,82.89a8,8,0,0,0,5.1-2.64,74.11,74.11,0,0,1,6.14-6.14A8,8,0,0,0,82.89,69L85.4,46.43a91.32,91.32,0,0,1,15-6.23l17.74,14.19a8,8,0,0,0,5.48,1.74,73.93,73.93,0,0,1,8.68,0,8,8,0,0,0,5.48-1.74L155.55,40.2a91.57,91.57,0,0,1,15,6.23L173.11,69a8,8,0,0,0,2.64,5.1,74.11,74.11,0,0,1,6.14,6.14,8,8,0,0,0,5.1,2.64l22.58,2.51a91.32,91.32,0,0,1,6.23,15l-14.19,17.74A8,8,0,0,0,199.87,123.66Z"/></symbol><symbol id="i-user-circle" viewBox="0 0 256 256"><path d="M128,24A104,104,0,1,0,232,128,104.11,104.11,0,0,0,128,24ZM74.08,197.5a64,64,0,0,1,107.84,0,87.83,87.83,0,0,1-107.84,0ZM96,120a32,32,0,1,1,32,32A32,32,0,0,1,96,120Zm97.76,66.41a79.66,79.66,0,0,0-36.06-28.75,48,48,0,1,0-59.4,0,79.66,79.66,0,0,0-36.06,28.75,88,88,0,1,1,131.52,0Z"/></symbol><symbol id="i-sign-in" viewBox="0 0 256 256"><path d="M141.66,133.66l-40,40a8,8,0,0,1-11.32-11.32L116.69,136H24a8,8,0,0,1,0-16h92.69L90.34,93.66a8,8,0,0,1,11.32-11.32l40,40A8,8,0,0,1,141.66,133.66ZM200,32H136a8,8,0,0,0,0,16h56V208H136a8,8,0,0,0,0,16h64a8,8,0,0,0,8-8V40A8,8,0,0,0,200,32Z"/></symbol><symbol id="i-sign-out" viewBox="0 0 256 256"><path d="M120,216a8,8,0,0,1-8,8H48a8,8,0,0,1-8-8V40a8,8,0,0,1,8-8h64a8,8,0,0,1,0,16H56V208h56A8,8,0,0,1,120,216Zm109.66-93.66-40-40a8,8,0,0,0-11.32,11.32L204.69,120H112a8,8,0,0,0,0,16h92.69l-26.35,26.34a8,8,0,0,0,11.32,11.32l40-40A8,8,0,0,0,229.66,122.34Z"/></symbol><symbol id="i-check-circle" viewBox="0 0 256 256"><path d="M173.66,98.34a8,8,0,0,1,0,11.32l-56,56a8,8,0,0,1-11.32,0l-24-24a8,8,0,0,1,11.32-11.32L112,148.69l50.34-50.35A8,8,0,0,1,173.66,98.34ZM232,128A104,104,0,1,1,128,24,104.11,104.11,0,0,1,232,128Zm-16,0a88,88,0,1,0-88,88A88.1,88.1,0,0,0,216,128Z"/></symbol><symbol id="i-warning" viewBox="0 0 256 256"><path d="M236.8,188.09,149.35,36.22h0a24.76,24.76,0,0,0-42.7,0L19.2,188.09a23.51,23.51,0,0,0,0,23.72A24.35,24.35,0,0,0,40.55,224h174.9a24.35,24.35,0,0,0,21.33-12.19A23.51,23.51,0,0,0,236.8,188.09ZM222.93,203.8a8.5,8.5,0,0,1-7.48,4.2H40.55a8.5,8.5,0,0,1-7.48-4.2,7.59,7.59,0,0,1,0-7.72L120.52,44.21a8.75,8.75,0,0,1,15,0l87.45,151.87A7.59,7.59,0,0,1,222.93,203.8ZM120,144V104a8,8,0,0,1,16,0v40a8,8,0,0,1-16,0Zm20,36a12,12,0,1,1-12-12A12,12,0,0,1,140,180Z"/></symbol><symbol id="i-x-circle" viewBox="0 0 256 256"><path d="M165.66,101.66,139.31,128l26.35,26.34a8,8,0,0,1-11.32,11.32L128,139.31l-26.34,26.35a8,8,0,0,1-11.32-11.32L116.69,128,90.34,101.66a8,8,0,0,1,11.32-11.32L128,116.69l26.34-26.35a8,8,0,0,1,11.32,11.32ZM232,128A104,104,0,1,1,128,24,104.11,104.11,0,0,1,232,128Zm-16,0a88,88,0,1,0-88,88A88.1,88.1,0,0,0,216,128Z"/></symbol><symbol id="i-info" viewBox="0 0 256 256"><path d="M128,24A104,104,0,1,0,232,128,104.11,104.11,0,0,0,128,24Zm0,192a88,88,0,1,1,88-88A88.1,88.1,0,0,1,128,216Zm16-40a8,8,0,0,1-8,8,16,16,0,0,1-16-16V128a8,8,0,0,1,0-16,16,16,0,0,1,16,16v40A8,8,0,0,1,144,176ZM112,84a12,12,0,1,1,12,12A12,12,0,0,1,112,84Z"/></symbol><symbol id="i-discord-logo" viewBox="0 0 256 256"><path d="M104,140a12,12,0,1,1-12-12A12,12,0,0,1,104,140Zm60-12a12,12,0,1,0,12,12A12,12,0,0,0,164,128Zm74.45,64.9-67,29.71a16.17,16.17,0,0,1-21.71-9.1l-8.11-22q-6.72.45-13.63.46t-13.63-.46l-8.11,22a16.18,16.18,0,0,1-21.71,9.1l-67-29.71a15.93,15.93,0,0,1-9.06-18.51L38,58A16.07,16.07,0,0,1,51,46.14l36.06-5.93a16.22,16.22,0,0,1,18.26,11.88l3.26,12.84Q118.11,64,128,64t19.4.93l3.26-12.84a16.21,16.21,0,0,1,18.26-11.88L205,46.14A16.07,16.07,0,0,1,218,58l29.53,116.38A15.93,15.93,0,0,1,238.45,192.9ZM232,178.28,202.47,62s0,0-.08,0L166.33,56a.17.17,0,0,0-.17,0l-2.83,11.14c5,.94,10,2.06,14.83,3.42A8,8,0,0,1,176,86.31a8.09,8.09,0,0,1-2.16-.3A172.25,172.25,0,0,0,128,80a172.25,172.25,0,0,0-45.84,6,8,8,0,1,1-4.32-15.4c4.82-1.36,9.78-2.48,14.82-3.42L89.83,56s0,0-.12,0h0L53.61,61.93a.17.17,0,0,0-.09,0L24,178.33,91,208a.23.23,0,0,0,.22,0L98,189.72a173.2,173.2,0,0,1-20.14-4.32A8,8,0,0,1,82.16,170,171.85,171.85,0,0,0,128,176a171.85,171.85,0,0,0,45.84-6,8,8,0,0,1,4.32,15.41A173.2,173.2,0,0,1,158,189.72L164.75,208a.22.22,0,0,0,.21,0Z"/></symbol><symbol id="i-telegram-logo" viewBox="0 0 256 256"><path d="M228.88,26.19a9,9,0,0,0-9.16-1.57L17.06,103.93a14.22,14.22,0,0,0,2.43,27.21L72,141.45V200a15.92,15.92,0,0,0,10,14.83,15.91,15.91,0,0,0,17.51-3.73l25.32-26.26L165,220a15.88,15.88,0,0,0,10.51,4,16.3,16.3,0,0,0,5-.79,15.85,15.85,0,0,0,10.67-11.63L231.77,35A9,9,0,0,0,228.88,26.19Zm-61.14,36L78.15,126.35l-49.6-9.73ZM88,200V152.52l24.79,21.74Zm87.53,8L92.85,135.5l119-85.29Z"/></symbol><symbol id="i-chat-text" viewBox="0 0 256 256"><path d="M216,48H40A16,16,0,0,0,24,64V224a15.85,15.85,0,0,0,9.24,14.5A16.13,16.13,0,0,0,40,240a15.89,15.89,0,0,0,10.25-3.78l.09-.07L83,208H216a16,16,0,0,0,16-16V64A16,16,0,0,0,216,48ZM40,224h0ZM216,192H80a8,8,0,0,0-5.23,1.95L40,224V64H216ZM88,112a8,8,0,0,1,8-8h64a8,8,0,0,1,0,16H96A8,8,0,0,1,88,112Zm0,32a8,8,0,0,1,8-8h64a8,8,0,1,1,0,16H96A8,8,0,0,1,88,144Z"/></symbol><symbol id="i-envelope-simple" viewBox="0 0 256 256"><path d="M224,48H32a8,8,0,0,0-8,8V192a16,16,0,0,0,16,16H216a16,16,0,0,0,16-16V56A8,8,0,0,0,224,48ZM203.43,64,128,133.15,52.57,64ZM216,192H40V74.19l82.59,75.71a8,8,0,0,0,10.82,0L216,74.19V192Z"/></symbol><symbol id="i-slack-logo" viewBox="0 0 256 256"><path d="M221.13,128A32,32,0,0,0,184,76.31V56a32,32,0,0,0-56-21.13A32,32,0,0,0,76.31,72H56a32,32,0,0,0-21.13,56A32,32,0,0,0,72,179.69V200a32,32,0,0,0,56,21.13A32,32,0,0,0,179.69,184H200a32,32,0,0,0,21.13-56ZM72,152a16,16,0,1,1-16-16H72Zm48,48a16,16,0,0,1-32,0V152a16,16,0,0,1,16-16h16Zm0-80H56a16,16,0,0,1,0-32h48a16,16,0,0,1,16,16Zm0-48H104a16,16,0,1,1,16-16Zm16-16a16,16,0,0,1,32,0v48a16,16,0,0,1-16,16H136Zm16,160a16,16,0,0,1-16-16V184h16a16,16,0,0,1,0,32Zm48-48H152a16,16,0,0,1-16-16V136h64a16,16,0,0,1,0,32Zm0-48H184V104a16,16,0,1,1,16,16Z"/></symbol><symbol id="i-github-logo" viewBox="0 0 256 256"><path d="M208.31,75.68A59.78,59.78,0,0,0,202.93,28,8,8,0,0,0,196,24a59.75,59.75,0,0,0-48,24H124A59.75,59.75,0,0,0,76,24a8,8,0,0,0-6.93,4,59.78,59.78,0,0,0-5.38,47.68A58.14,58.14,0,0,0,56,104v8a56.06,56.06,0,0,0,48.44,55.47A39.8,39.8,0,0,0,96,192v8H72a24,24,0,0,1-24-24A40,40,0,0,0,8,136a8,8,0,0,0,0,16,24,24,0,0,1,24,24,40,40,0,0,0,40,40H96v16a8,8,0,0,0,16,0V192a24,24,0,0,1,48,0v40a8,8,0,0,0,16,0V192a39.8,39.8,0,0,0-8.44-24.53A56.06,56.06,0,0,0,216,112v-8A58.14,58.14,0,0,0,208.31,75.68ZM200,112a40,40,0,0,1-40,40H112a40,40,0,0,1-40-40v-8a41.74,41.74,0,0,1,6.9-22.48A8,8,0,0,0,80,73.83a43.81,43.81,0,0,1,.79-33.58,43.88,43.88,0,0,1,32.32,20.06A8,8,0,0,0,119.82,64h32.35a8,8,0,0,0,6.74-3.69,43.87,43.87,0,0,1,32.32-20.06A43.81,43.81,0,0,1,192,73.83a8.09,8.09,0,0,0,1,7.65A41.72,41.72,0,0,1,200,104Z"/></symbol><symbol id="i-shield-check" viewBox="0 0 256 256"><path d="M208,40H48A16,16,0,0,0,32,56v56c0,52.72,25.52,84.67,46.93,102.19,23.06,18.86,46,25.26,47,25.53a8,8,0,0,0,4.2,0c1-.27,23.91-6.67,47-25.53C198.48,196.67,224,164.72,224,112V56A16,16,0,0,0,208,40Zm0,72c0,37.07-13.66,67.16-40.6,89.42A129.3,129.3,0,0,1,128,223.62a128.25,128.25,0,0,1-38.92-21.81C61.82,179.51,48,149.3,48,112l0-56,160,0ZM82.34,141.66a8,8,0,0,1,11.32-11.32L112,148.69l50.34-50.35a8,8,0,0,1,11.32,11.32l-56,56a8,8,0,0,1-11.32,0Z"/></symbol><symbol id="i-list-checks" viewBox="0 0 256 256"><path d="M224,128a8,8,0,0,1-8,8H128a8,8,0,0,1,0-16h88A8,8,0,0,1,224,128ZM128,72h88a8,8,0,0,0,0-16H128a8,8,0,0,0,0,16Zm88,112H128a8,8,0,0,0,0,16h88a8,8,0,0,0,0-16ZM82.34,42.34,56,68.69,45.66,58.34A8,8,0,0,0,34.34,69.66l16,16a8,8,0,0,0,11.32,0l32-32A8,8,0,0,0,82.34,42.34Zm0,64L56,132.69,45.66,122.34a8,8,0,0,0-11.32,11.32l16,16a8,8,0,0,0,11.32,0l32-32a8,8,0,0,0-11.32-11.32Zm0,64L56,196.69,45.66,186.34a8,8,0,0,0-11.32,11.32l16,16a8,8,0,0,0,11.32,0l32-32a8,8,0,0,0-11.32-11.32Z"/></symbol><symbol id="i-flask" viewBox="0 0 256 256"><path d="M221.69,199.77,160,96.92V40h8a8,8,0,0,0,0-16H88a8,8,0,0,0,0,16h8V96.92L34.31,199.77A16,16,0,0,0,48,224H208a16,16,0,0,0,13.72-24.23ZM110.86,103.25A7.93,7.93,0,0,0,112,99.14V40h32V99.14a7.93,7.93,0,0,0,1.14,4.11L183.36,167c-12,2.37-29.07,1.37-51.75-10.11-15.91-8.05-31.05-12.32-45.22-12.81ZM48,208l28.54-47.58c14.25-1.74,30.31,1.85,47.82,10.72,19,9.61,35,12.88,48,12.88a69.89,69.89,0,0,0,19.55-2.7L208,208Z"/></symbol><symbol id="i-compass" viewBox="0 0 256 256"><path d="M128,24A104,104,0,1,0,232,128,104.11,104.11,0,0,0,128,24Zm0,192a88,88,0,1,1,88-88A88.1,88.1,0,0,1,128,216ZM172.42,72.84l-64,32a8.05,8.05,0,0,0-3.58,3.58l-32,64A8,8,0,0,0,80,184a8.1,8.1,0,0,0,3.58-.84l64-32a8.05,8.05,0,0,0,3.58-3.58l32-64a8,8,0,0,0-10.74-10.74ZM138,138,97.89,158.11,118,118l40.15-20.07Z"/></symbol><symbol id="i-buildings" viewBox="0 0 256 256"><path d="M240,208H224V96a16,16,0,0,0-16-16H144V32a16,16,0,0,0-24.88-13.32L39.12,72A16,16,0,0,0,32,85.34V208H16a8,8,0,0,0,0,16H240a8,8,0,0,0,0-16ZM208,96V208H144V96ZM48,85.34,128,32V208H48ZM112,112v16a8,8,0,0,1-16,0V112a8,8,0,1,1,16,0Zm-32,0v16a8,8,0,0,1-16,0V112a8,8,0,1,1,16,0Zm0,56v16a8,8,0,0,1-16,0V168a8,8,0,0,1,16,0Zm32,0v16a8,8,0,0,1-16,0V168a8,8,0,0,1,16,0Z"/></symbol><symbol id="i-graph" viewBox="0 0 256 256"><path d="M200,152a31.84,31.84,0,0,0-19.53,6.68l-23.11-18A31.65,31.65,0,0,0,160,128c0-.74,0-1.48-.08-2.21l13.23-4.41A32,32,0,1,0,168,104c0,.74,0,1.48.08,2.21l-13.23,4.41A32,32,0,0,0,128,96a32.59,32.59,0,0,0-5.27.44L115.89,81A32,32,0,1,0,96,88a32.59,32.59,0,0,0,5.27-.44l6.84,15.4a31.92,31.92,0,0,0-8.57,39.64L73.83,165.44a32.06,32.06,0,1,0,10.63,12l25.71-22.84a31.91,31.91,0,0,0,37.36-1.24l23.11,18A31.65,31.65,0,0,0,168,184a32,32,0,1,0,32-32Zm0-64a16,16,0,1,1-16,16A16,16,0,0,1,200,88ZM80,56A16,16,0,1,1,96,72,16,16,0,0,1,80,56ZM56,208a16,16,0,1,1,16-16A16,16,0,0,1,56,208Zm56-80a16,16,0,1,1,16,16A16,16,0,0,1,112,128Zm88,72a16,16,0,1,1,16-16A16,16,0,0,1,200,200Z"/></symbol><symbol id="i-clock-counter-clockwise" viewBox="0 0 256 256"><path d="M136,80v43.47l36.12,21.67a8,8,0,0,1-8.24,13.72l-40-24A8,8,0,0,1,120,128V80a8,8,0,0,1,16,0Zm-8-48A95.44,95.44,0,0,0,60.08,60.15C52.81,67.51,46.35,74.59,40,82V64a8,8,0,0,0-16,0v40a8,8,0,0,0,8,8H72a8,8,0,0,0,0-16H49c7.15-8.42,14.27-16.35,22.39-24.57a80,80,0,1,1,1.66,114.75,8,8,0,1,0-11,11.64A96,96,0,1,0,128,32Z"/></symbol><symbol id="i-trend-up" viewBox="0 0 256 256"><path d="M240,56v64a8,8,0,0,1-16,0V75.31l-82.34,82.35a8,8,0,0,1-11.32,0L96,123.31,29.66,189.66a8,8,0,0,1-11.32-11.32l72-72a8,8,0,0,1,11.32,0L136,140.69,212.69,64H168a8,8,0,0,1,0-16h64A8,8,0,0,1,240,56Z"/></symbol><symbol id="i-trend-down" viewBox="0 0 256 256"><path d="M240,128v64a8,8,0,0,1-8,8H168a8,8,0,0,1,0-16h44.69L136,107.31l-34.34,34.35a8,8,0,0,1-11.32,0l-72-72A8,8,0,0,1,29.66,58.34L96,124.69l34.34-34.35a8,8,0,0,1,11.32,0L224,172.69V128a8,8,0,0,1,16,0Z"/></symbol><symbol id="i-minus" viewBox="0 0 256 256"><path d="M224,128a8,8,0,0,1-8,8H40a8,8,0,0,1,0-16H216A8,8,0,0,1,224,128Z"/></symbol><symbol id="i-caret-down" viewBox="0 0 256 256"><path d="M213.66,101.66l-80,80a8,8,0,0,1-11.32,0l-80-80A8,8,0,0,1,53.66,90.34L128,164.69l74.34-74.35a8,8,0,0,1,11.32,11.32Z"/></symbol><symbol id="i-caret-right" viewBox="0 0 256 256"><path d="M181.66,133.66l-80,80a8,8,0,0,1-11.32-11.32L164.69,128,90.34,53.66a8,8,0,0,1,11.32-11.32l80,80A8,8,0,0,1,181.66,133.66Z"/></symbol><symbol id="i-copy" viewBox="0 0 256 256"><path d="M216,32H88a8,8,0,0,0-8,8V80H40a8,8,0,0,0-8,8V216a8,8,0,0,0,8,8H168a8,8,0,0,0,8-8V176h40a8,8,0,0,0,8-8V40A8,8,0,0,0,216,32ZM160,208H48V96H160Zm48-48H176V88a8,8,0,0,0-8-8H96V48H208Z"/></symbol><symbol id="i-link" viewBox="0 0 256 256"><path d="M240,88.23a54.43,54.43,0,0,1-16,37L189.25,160a54.27,54.27,0,0,1-38.63,16h-.05A54.63,54.63,0,0,1,96,119.84a8,8,0,0,1,16,.45A38.62,38.62,0,0,0,150.58,160h0a38.39,38.39,0,0,0,27.31-11.31l34.75-34.75a38.63,38.63,0,0,0-54.63-54.63l-11,11A8,8,0,0,1,135.7,59l11-11A54.65,54.65,0,0,1,224,48,54.86,54.86,0,0,1,240,88.23ZM109,185.66l-11,11A38.41,38.41,0,0,1,70.6,208h0a38.63,38.63,0,0,1-27.29-65.94L78,107.31A38.63,38.63,0,0,1,144,135.71a8,8,0,0,0,16,.45A54.86,54.86,0,0,0,144,96a54.65,54.65,0,0,0-77.27,0L32,130.75A54.62,54.62,0,0,0,70.56,224h0a54.28,54.28,0,0,0,38.64-16l11-11A8,8,0,0,0,109,185.66Z"/></symbol><symbol id="i-moon" viewBox="0 0 256 256"><path d="M233.54,142.23a8,8,0,0,0-8-2,88.08,88.08,0,0,1-109.8-109.8,8,8,0,0,0-10-10,104.84,104.84,0,0,0-52.91,37A104,104,0,0,0,136,224a103.09,103.09,0,0,0,62.52-20.88,104.84,104.84,0,0,0,37-52.91A8,8,0,0,0,233.54,142.23ZM188.9,190.34A88,88,0,0,1,65.66,67.11a89,89,0,0,1,31.4-26A106,106,0,0,0,96,56,104.11,104.11,0,0,0,200,160a106,106,0,0,0,14.92-1.06A89,89,0,0,1,188.9,190.34Z"/></symbol><symbol id="i-sun" viewBox="0 0 256 256"><path d="M120,40V16a8,8,0,0,1,16,0V40a8,8,0,0,1-16,0Zm72,88a64,64,0,1,1-64-64A64.07,64.07,0,0,1,192,128Zm-16,0a48,48,0,1,0-48,48A48.05,48.05,0,0,0,176,128ZM58.34,69.66A8,8,0,0,0,69.66,58.34l-16-16A8,8,0,0,0,42.34,53.66Zm0,116.68-16,16a8,8,0,0,0,11.32,11.32l16-16a8,8,0,0,0-11.32-11.32ZM192,72a8,8,0,0,0,5.66-2.34l16-16a8,8,0,0,0-11.32-11.32l-16,16A8,8,0,0,0,192,72Zm5.66,114.34a8,8,0,0,0-11.32,11.32l16,16a8,8,0,0,0,11.32-11.32ZM48,128a8,8,0,0,0-8-8H16a8,8,0,0,0,0,16H40A8,8,0,0,0,48,128Zm80,80a8,8,0,0,0-8,8v24a8,8,0,0,0,16,0V216A8,8,0,0,0,128,208Zm112-88H216a8,8,0,0,0,0,16h24a8,8,0,0,0,0-16Z"/></symbol><symbol id="i-list" viewBox="0 0 256 256"><path d="M224,128a8,8,0,0,1-8,8H40a8,8,0,0,1,0-16H216A8,8,0,0,1,224,128ZM40,72H216a8,8,0,0,0,0-16H40a8,8,0,0,0,0,16ZM216,184H40a8,8,0,0,0,0,16H216a8,8,0,0,0,0-16Z"/></symbol><symbol id="i-x" viewBox="0 0 256 256"><path d="M205.66,194.34a8,8,0,0,1-11.32,11.32L128,139.31,61.66,205.66a8,8,0,0,1-11.32-11.32L116.69,128,50.34,61.66A8,8,0,0,1,61.66,50.34L128,116.69l66.34-66.35a8,8,0,0,1,11.32,11.32L139.31,128Z"/></symbol><symbol id="i-device-mobile" viewBox="0 0 256 256"><path d="M176,16H80A24,24,0,0,0,56,40V216a24,24,0,0,0,24,24h96a24,24,0,0,0,24-24V40A24,24,0,0,0,176,16ZM72,64H184V192H72Zm8-32h96a8,8,0,0,1,8,8v8H72V40A8,8,0,0,1,80,32Zm96,192H80a8,8,0,0,1-8-8v-8H184v8A8,8,0,0,1,176,224Z"/></symbol><symbol id="i-webhooks-logo" viewBox="0 0 256 256"><path d="M178.16,176H111.32A48,48,0,1,1,25.6,139.19a8,8,0,0,1,12.8,9.61A31.69,31.69,0,0,0,32,168a32,32,0,0,0,64,0,8,8,0,0,1,8-8h74.16a16,16,0,1,1,0,16ZM64,184a16,16,0,0,0,14.08-23.61l35.77-58.14a8,8,0,0,0-2.62-11,32,32,0,1,1,46.1-40.06A8,8,0,1,0,172,44.79a48,48,0,1,0-75.62,55.33L64.44,152c-.15,0-.29,0-.44,0a16,16,0,0,0,0,32Zm128-64a48.18,48.18,0,0,0-18,3.49L142.08,71.6A16,16,0,1,0,128,80l.44,0,35.78,58.15a8,8,0,0,0,11,2.61A32,32,0,1,1,192,200a8,8,0,0,0,0,16,48,48,0,0,0,0-96Z"/></symbol><symbol id="i-hash" viewBox="0 0 256 256"><path d="M224,88H175.4l8.47-46.57a8,8,0,0,0-15.74-2.86l-9,49.43H111.4l8.47-46.57a8,8,0,0,0-15.74-2.86L95.14,88H48a8,8,0,0,0,0,16H92.23L83.5,152H32a8,8,0,0,0,0,16H80.6l-8.47,46.57a8,8,0,0,0,6.44,9.3A7.79,7.79,0,0,0,80,224a8,8,0,0,0,7.86-6.57l9-49.43H144.6l-8.47,46.57a8,8,0,0,0,6.44,9.3A7.79,7.79,0,0,0,144,224a8,8,0,0,0,7.86-6.57l9-49.43H208a8,8,0,0,0,0-16H163.77l8.73-48H224a8,8,0,0,0,0-16Zm-76.5,64H99.77l8.73-48h47.73Z"/></symbol><symbol id="i-seal-check" viewBox="0 0 256 256"><path d="M225.86,102.82c-3.77-3.94-7.67-8-9.14-11.57-1.36-3.27-1.44-8.69-1.52-13.94-.15-9.76-.31-20.82-8-28.51s-18.75-7.85-28.51-8c-5.25-.08-10.67-.16-13.94-1.52-3.56-1.47-7.63-5.37-11.57-9.14C146.28,23.51,138.44,16,128,16s-18.27,7.51-25.18,14.14c-3.94,3.77-8,7.67-11.57,9.14C88,40.64,82.56,40.72,77.31,40.8c-9.76.15-20.82.31-28.51,8S41,67.55,40.8,77.31c-.08,5.25-.16,10.67-1.52,13.94-1.47,3.56-5.37,7.63-9.14,11.57C23.51,109.72,16,117.56,16,128s7.51,18.27,14.14,25.18c3.77,3.94,7.67,8,9.14,11.57,1.36,3.27,1.44,8.69,1.52,13.94.15,9.76.31,20.82,8,28.51s18.75,7.85,28.51,8c5.25.08,10.67.16,13.94,1.52,3.56,1.47,7.63,5.37,11.57,9.14C109.72,232.49,117.56,240,128,240s18.27-7.51,25.18-14.14c3.94-3.77,8-7.67,11.57-9.14,3.27-1.36,8.69-1.44,13.94-1.52,9.76-.15,20.82-.31,28.51-8s7.85-18.75,8-28.51c.08-5.25.16-10.67,1.52-13.94,1.47-3.56,5.37-7.63,9.14-11.57C232.49,146.28,240,138.44,240,128S232.49,109.73,225.86,102.82Zm-11.55,39.29c-4.79,5-9.75,10.17-12.38,16.52-2.52,6.1-2.63,13.07-2.73,19.82-.1,7-.21,14.33-3.32,17.43s-10.39,3.22-17.43,3.32c-6.75.1-13.72.21-19.82,2.73-6.35,2.63-11.52,7.59-16.52,12.38S132,224,128,224s-9.15-4.92-14.11-9.69-10.17-9.75-16.52-12.38c-6.1-2.52-13.07-2.63-19.82-2.73-7-.1-14.33-.21-17.43-3.32s-3.22-10.39-3.32-17.43c-.1-6.75-.21-13.72-2.73-19.82-2.63-6.35-7.59-11.52-12.38-16.52S32,132,32,128s4.92-9.15,9.69-14.11,9.75-10.17,12.38-16.52c2.52-6.1,2.63-13.07,2.73-19.82.1-7,.21-14.33,3.32-17.43S70.51,56.9,77.55,56.8c6.75-.1,13.72-.21,19.82-2.73,6.35-2.63,11.52-7.59,16.52-12.38S124,32,128,32s9.15,4.92,14.11,9.69,10.17,9.75,16.52,12.38c6.1,2.52,13.07,2.63,19.82,2.73,7,.1,14.33.21,17.43,3.32s3.22,10.39,3.32,17.43c.1,6.75.21,13.72,2.73,19.82,2.63,6.35,7.59,11.52,12.38,16.52S224,124,224,128,219.08,137.15,214.31,142.11ZM173.66,98.34a8,8,0,0,1,0,11.32l-56,56a8,8,0,0,1-11.32,0l-24-24a8,8,0,0,1,11.32-11.32L112,148.69l50.34-50.35A8,8,0,0,1,173.66,98.34Z"/></symbol><symbol id="i-eye-slash" viewBox="0 0 256 256"><path d="M53.92,34.62A8,8,0,1,0,42.08,45.38L61.32,66.55C25,88.84,9.38,123.2,8.69,124.76a8,8,0,0,0,0,6.5c.35.79,8.82,19.57,27.65,38.4C61.43,194.74,93.12,208,128,208a127.11,127.11,0,0,0,52.07-10.83l22,24.21a8,8,0,1,0,11.84-10.76Zm47.33,75.84,41.67,45.85a32,32,0,0,1-41.67-45.85ZM128,192c-30.78,0-57.67-11.19-79.93-33.25A133.16,133.16,0,0,1,25,128c4.69-8.79,19.66-33.39,47.35-49.38l18,19.75a48,48,0,0,0,63.66,70l14.73,16.2A112,112,0,0,1,128,192Zm6-95.43a8,8,0,0,1,3-15.72,48.16,48.16,0,0,1,38.77,42.64,8,8,0,0,1-7.22,8.71,6.39,6.39,0,0,1-.75,0,8,8,0,0,1-8-7.26A32.09,32.09,0,0,0,134,96.57Zm113.28,34.69c-.42.94-10.55,23.37-33.36,43.8a8,8,0,1,1-10.67-11.92A132.77,132.77,0,0,0,231.05,128a133.15,133.15,0,0,0-23.12-30.77C185.67,75.19,158.78,64,128,64a118.37,118.37,0,0,0-19.36,1.57A8,8,0,1,1,106,49.79,134,134,0,0,1,128,48c34.88,0,66.57,13.26,91.66,38.35,18.83,18.83,27.3,37.62,27.65,38.41A8,8,0,0,1,247.31,131.26Z"/></symbol><symbol id="i-plus" viewBox="0 0 256 256"><path d="M224,128a8,8,0,0,1-8,8H136v80a8,8,0,0,1-16,0V136H40a8,8,0,0,1,0-16h80V40a8,8,0,0,1,16,0v80h80A8,8,0,0,1,224,128Z"/></symbol><symbol id="i-trash" viewBox="0 0 256 256"><path d="M216,48H176V40a24,24,0,0,0-24-24H104A24,24,0,0,0,80,40v8H40a8,8,0,0,0,0,16h8V208a16,16,0,0,0,16,16H192a16,16,0,0,0,16-16V64h8a8,8,0,0,0,0-16ZM96,40a8,8,0,0,1,8-8h48a8,8,0,0,1,8,8v8H96Zm96,168H64V64H192ZM112,104v64a8,8,0,0,1-16,0V104a8,8,0,0,1,16,0Zm48,0v64a8,8,0,0,1-16,0V104a8,8,0,0,1,16,0Z"/></symbol><symbol id="i-paper-plane-tilt" viewBox="0 0 256 256"><path d="M227.32,28.68a16,16,0,0,0-15.66-4.08l-.15,0L19.57,82.84a16,16,0,0,0-2.49,29.8L102,154l41.3,84.87A15.86,15.86,0,0,0,157.74,248q.69,0,1.38-.06a15.88,15.88,0,0,0,14-11.51l58.2-191.94c0-.05,0-.1,0-.15A16,16,0,0,0,227.32,28.68ZM157.83,231.85l-.05.14,0-.07-40.06-82.3,48-48a8,8,0,0,0-11.31-11.31l-48,48L24.08,98.25l-.07,0,.14,0L216,40Z"/></symbol><symbol id="i-factory" viewBox="0 0 256 256"><path d="M116,176a8,8,0,0,1-8,8H80a8,8,0,0,1,0-16h28A8,8,0,0,1,116,176Zm60-8H148a8,8,0,0,0,0,16h28a8,8,0,0,0,0-16Zm64,48a8,8,0,0,1-8,8H24a8,8,0,0,1,0-16h8V88a8,8,0,0,1,12.8-6.4L96,120V88a8,8,0,0,1,12.8-6.4l38.74,29.05L159.1,29.74A16.08,16.08,0,0,1,174.94,16h18.12A16.08,16.08,0,0,1,208.9,29.74l15,105.13s.08.78.08,1.13v72h8A8,8,0,0,1,240,216Zm-77.86-94.4,8.53,6.4h36.11L193.06,32H174.94ZM48,208H208V144H168a8,8,0,0,1-4.8-1.6l-14.4-10.8,0,0L112,104v32a8,8,0,0,1-12.8,6.4L48,104Z"/></symbol><symbol id="i-hard-drives" viewBox="0 0 256 256"><path d="M208,136H48a16,16,0,0,0-16,16v48a16,16,0,0,0,16,16H208a16,16,0,0,0,16-16V152A16,16,0,0,0,208,136Zm0,64H48V152H208v48Zm0-160H48A16,16,0,0,0,32,56v48a16,16,0,0,0,16,16H208a16,16,0,0,0,16-16V56A16,16,0,0,0,208,40Zm0,64H48V56H208v48ZM192,80a12,12,0,1,1-12-12A12,12,0,0,1,192,80Zm0,96a12,12,0,1,1-12-12A12,12,0,0,1,192,176Z"/></symbol><symbol id="i-waveform" viewBox="0 0 256 256"><path d="M56,96v64a8,8,0,0,1-16,0V96a8,8,0,0,1,16,0ZM88,24a8,8,0,0,0-8,8V224a8,8,0,0,0,16,0V32A8,8,0,0,0,88,24Zm40,32a8,8,0,0,0-8,8V192a8,8,0,0,0,16,0V64A8,8,0,0,0,128,56Zm40,32a8,8,0,0,0-8,8v64a8,8,0,0,0,16,0V96A8,8,0,0,0,168,88Zm40-16a8,8,0,0,0-8,8v96a8,8,0,0,0,16,0V80A8,8,0,0,0,208,72Z"/></symbol></svg>